<svg xmlns="http://www.w3.org/2000/svg" xmlns:xlink="http://www.w3.org/1999/xlink" xmlns:a="http://ns.adobe.com/AdobeSVGViewerExtensions/3.0/" version="1.1" x="0px" y="0px" viewBox="-23.358 -6.279 100 125" enable-background="new -23.358 -6.279 100 100" xml:space="preserve"><path d="M54.708,87.441h-3.546V3.46H3.287v83.981H0V0h54.708V87.441z M21.342,19.111c0,0-9.947-2.181-5.109,5.042  c4.838,7.223,3.065-4.465,7.971-2.675c4.906,1.79,4.906-2.985,1.022-2.675 M19.215,22.188c0,0.624-0.506,1.13-1.13,1.13  s-1.131-0.506-1.131-1.13s0.507-1.131,1.131-1.131S19.215,21.563,19.215,22.188z M38.229,12.549c0,0,4.072,2.705,2.678-1.782  c-1.392-4.485-2.032-0.238-3.787-1.673c-1.754-1.436-3.145-0.896-2.989,0.242c0.158,1.139-1.058,2.579,1.521,2.895 M40.012,10.793  c0,0.624-0.506,1.13-1.13,1.13s-1.131-0.506-1.131-1.13c0-0.625,0.507-1.131,1.131-1.131S40.012,10.168,40.012,10.793z   M16.253,35.646c0,0-5.761-2.48-2.973,2.86c2.787,5.342,2.621-0.164,5.163,1.243c2.542,1.409,4.173,0.409,3.717-0.992  c-0.459-1.401,0.742-3.496-2.583-3.303 M20.896,37.666c0,0.624-0.507,1.13-1.131,1.13s-1.131-0.506-1.131-1.13  s0.507-1.131,1.131-1.131S20.896,37.042,20.896,37.666z M38.474,29.417c0,0,4.265,2.973,2.89-1.829  c-1.373-4.803-2.156-0.303-3.986-1.871c-1.83-1.568-3.321-1.027-3.183,0.187c0.139,1.214-1.187,2.716,1.547,3.113 M37.251,27.006  c0,0.624-0.507,1.13-1.131,1.13s-1.131-0.506-1.131-1.13s0.507-1.131,1.131-1.131S37.251,26.382,37.251,27.006z M16.885,49.715  c0,0-5.003-0.607-2.75,4.469c2.25,5.078,11.629-0.607,7.191-2.539 M18.603,52.967c0,0.623-0.507,1.129-1.131,1.129  s-1.131-0.506-1.131-1.129c0-0.625,0.507-1.131,1.131-1.131S18.603,52.342,18.603,52.967z M37.792,61.539  c0,0,4.845,3.379,3.284-2.074c-1.562-5.459-2.45-0.344-4.529-2.127c-2.079-1.779-3.772-1.166-3.615,0.213s-1.348,3.084,1.757,3.537   M36.13,58.799c0,0.625-0.507,1.131-1.131,1.131s-1.131-0.506-1.131-1.131c0-0.623,0.507-1.131,1.131-1.131  S36.13,58.176,36.13,58.799z M39.332,47.217c0,0,4.963-0.154,2.011-4.763c-2.949-4.609-11.237,2.326-6.624,3.544 M39.61,44.055  c0,0.625-0.506,1.13-1.131,1.13c-0.623,0-1.131-0.506-1.131-1.13c0-0.624,0.508-1.131,1.131-1.131  C39.104,42.924,39.61,43.431,39.61,44.055z M20.583,70.416c0,0,6.817-3.797,0.374-5.488c-6.443-1.689,0.508,4.119-3.217,5.582  c-3.723,1.463-1.301,4.203,0.771,2.055 M22.133,67.258c0,0.625-0.507,1.129-1.131,1.129s-1.13-0.504-1.13-1.129  c0-0.623,0.506-1.131,1.13-1.131S22.133,66.635,22.133,67.258z M34.868,80.154c0,0-1.441,3.189,2.391,2.75  c3.833-0.436,2.013-7.83-0.189-5.291 M38.174,80.744c0,0.623-0.506,1.127-1.131,1.127c-0.623,0-1.131-0.504-1.131-1.127  c0-0.627,0.508-1.131,1.131-1.131C37.668,79.613,38.174,80.117,38.174,80.744z M18.303,81.18c0,0,6.443-1.174,0.932-4.207  c-5.513-3.033-2.185,1.658-5.21,1.904c-3.025,0.246-3.865,2.057-2.659,3.01c1.21,0.957,1.376,3.471,4.156,1.379 M15.344,80.863  c0,0.625-0.507,1.131-1.131,1.131s-1.131-0.506-1.131-1.131c0-0.623,0.507-1.131,1.131-1.131S15.344,80.24,15.344,80.863z   M42.366,68.551c0,0-1.29-3.254-3.641-0.197c-2.353,3.059,4.226,6.893,3.935,3.545 M39.641,70.516  c-0.448-0.434-0.459-1.148-0.024-1.596s1.15-0.461,1.599-0.029c0.447,0.436,0.459,1.152,0.025,1.6  C40.805,70.939,40.091,70.951,39.641,70.516z M19.301,9.223c0,0-1.291-3.254-3.641-0.197c-2.352,3.058,4.226,6.893,3.934,3.545   M16.576,11.188c-0.448-0.433-0.459-1.148-0.024-1.596s1.151-0.461,1.599-0.029c0.448,0.436,0.459,1.152,0.025,1.6  C17.74,11.611,17.026,11.624,16.576,11.188z"/></svg>