<svg xmlns="http://www.w3.org/2000/svg" xmlns:xlink="http://www.w3.org/1999/xlink" version="1.1" x="0px" y="0px" viewBox="0 0 100 125" style="enable-background:new 0 0 100 100;" xml:space="preserve"><style type="text/css">
	.st0{fill:none;stroke:#000000;stroke-width:2;stroke-linecap:round;stroke-linejoin:round;stroke-miterlimit:10;}
</style><path d="M15.628,90.093h36.49c3.103,0,5.628-2.524,5.628-5.628V19.096c0-3.104-2.525-5.628-5.628-5.628h-5.274V11.17  c0-0.002,0-0.004,0-0.007v-0.07c0-0.553-0.448-1-1-1c-0.386,0-0.721,0.219-0.888,0.539l-1.954,1.866l-2.148-2.054  c-0.385-0.368-0.994-0.368-1.382,0L37.321,12.5l-2.151-2.055c-0.387-0.369-0.995-0.369-1.382,0l-2.15,2.054l-2.148-2.054  c-0.387-0.369-0.995-0.369-1.382,0l-2.15,2.054l-2.147-2.054c-0.387-0.369-0.996-0.369-1.382,0l-2.148,2.054l-1.949-1.865  c-0.167-0.321-0.502-0.54-0.888-0.54c-0.552,0-1,0.447-1,1v2.375h-0.814c-3.103,0-5.628,2.524-5.628,5.628v65.369  C10,87.569,12.525,90.093,15.628,90.093z M18.442,13.508l1.146,1.097c0.387,0.369,0.996,0.369,1.382,0l2.149-2.054l2.147,2.054  c0.387,0.369,0.996,0.369,1.382,0l2.15-2.054l2.148,2.054c0.387,0.369,0.995,0.369,1.382,0l2.15-2.055l2.151,2.055  c0.387,0.369,0.995,0.369,1.382,0l2.151-2.055l2.148,2.055c0.386,0.369,0.995,0.369,1.382,0l1.151-1.1v11.463H18.442V13.508z   M12,19.096c0-2,1.627-3.628,3.628-3.628h0.814v10.5c0,0.553,0.448,1,1,1h28.402c0.552,0,1-0.447,1-1v-10.5h5.274  c2,0,3.628,1.628,3.628,3.628v65.369c0,2-1.627,3.628-3.628,3.628h-36.49c-2,0-3.628-1.628-3.628-3.628V19.096z"/><path d="M18.803,48.487h25.679c1.302,0,2.361-1.06,2.361-2.361V34.234c0-1.302-1.059-2.361-2.361-2.361H18.803  c-1.302,0-2.361,1.06-2.361,2.361v11.892C16.442,47.427,17.501,48.487,18.803,48.487z M18.442,34.234  c0-0.199,0.162-0.361,0.361-0.361h25.679c0.199,0,0.361,0.162,0.361,0.361v11.892c0,0.199-0.162,0.361-0.361,0.361H18.803  c-0.199,0-0.361-0.162-0.361-0.361V34.234z"/><path d="M17.442,80.391h28.402c0.552,0,1-0.447,1-1V54.399c0-0.553-0.448-1-1-1H17.442c-0.552,0-1,0.447-1,1v24.992  C16.442,79.944,16.89,80.391,17.442,80.391z M35.378,63.586v6.617h-7.358v-6.617H35.378z M28.021,61.586v-6.188h7.358v6.188H28.021z   M44.844,70.204h-7.465v-6.617h7.465V70.204z M35.378,72.204v6.188h-7.358v-6.188H35.378z M26.021,70.204h-7.579v-6.617h7.579  V70.204z M18.442,72.204h7.579v6.188h-7.579V72.204z M37.378,78.391v-6.188h7.465v6.188H37.378z M44.844,61.586h-7.465v-6.188h7.465  V61.586z M26.021,55.399v6.188h-7.579v-6.188H26.021z"/><path d="M65.845,73.311h19.307c2.625,0,4.762-2.136,4.762-4.762V35.013c0-2.626-2.136-4.762-4.762-4.762H65.845  c-2.625,0-4.762,2.136-4.762,4.762v33.536C61.083,71.175,63.22,73.311,65.845,73.311z M68.003,71.311v-39.06h3.102v39.06H68.003z   M87.914,35.013v33.536c0,1.522-1.239,2.762-2.762,2.762H73.105v-39.06h12.047C86.675,32.251,87.914,33.491,87.914,35.013z   M63.083,35.013c0-1.522,1.239-2.762,2.762-2.762h0.158v39.06h-0.158c-1.523,0-2.762-1.239-2.762-2.762V35.013z"/><path d="M80.593,63.847c-0.552,0-1,0.447-1,1v2.319c0,0.553,0.448,1,1,1s1-0.447,1-1v-2.319  C81.593,64.294,81.146,63.847,80.593,63.847z"/><path d="M80.593,57.57c-0.552,0-1,0.447-1,1v2.319c0,0.553,0.448,1,1,1s1-0.447,1-1V58.57C81.593,58.017,81.146,57.57,80.593,57.57z  "/><path d="M80.593,51.292c-0.552,0-1,0.447-1,1v2.319c0,0.553,0.448,1,1,1s1-0.447,1-1v-2.319  C81.593,51.74,81.146,51.292,80.593,51.292z"/><path d="M75.803,43.837c0,2.642,2.149,4.79,4.79,4.79s4.79-2.148,4.79-4.79c0-0.673-0.143-1.313-0.394-1.895  c0.252-0.582,0.394-1.222,0.394-1.895c0-2.642-2.149-4.79-4.79-4.79s-4.79,2.148-4.79,4.79c0,0.673,0.143,1.313,0.394,1.895  C75.946,42.524,75.803,43.164,75.803,43.837z M80.593,46.627c-1.506,0-2.729-1.202-2.78-2.695c0.786,0.564,1.742,0.905,2.78,0.905  s1.995-0.341,2.78-0.905C83.322,45.426,82.099,46.627,80.593,46.627z M78.558,41.942c0.51-0.547,1.23-0.895,2.035-0.895  s1.526,0.348,2.035,0.895c-0.51,0.547-1.23,0.895-2.035,0.895S79.068,42.49,78.558,41.942z M80.593,37.257  c1.506,0,2.729,1.202,2.78,2.695c-0.786-0.564-1.742-0.905-2.78-0.905s-1.995,0.341-2.78,0.905  C77.864,38.459,79.087,37.257,80.593,37.257z"/><path d="M51.667,82.391c0.552,0,1-0.447,1-1V25.593c0-0.553-0.448-1-1-1s-1,0.447-1,1v55.798  C50.667,81.944,51.114,82.391,51.667,82.391z"/><path d="M32.71,18.704H22.229c-0.552,0-1,0.447-1,1s0.448,1,1,1H32.71c0.552,0,1-0.447,1-1S33.262,18.704,32.71,18.704z"/><path d="M41.057,18.704h-4.678c-0.552,0-1,0.447-1,1s0.448,1,1,1h4.678c0.552,0,1-0.447,1-1S41.609,18.704,41.057,18.704z"/></svg>