<svg  xmlns="http://www.w3.org/2000/svg" fill="white" viewBox="0 0 128 160" x="0px" y="0px"><g><path d="M39.427,23.2c.081.148-.578.326-.533.3-.363.14-.459.429-.756.621A7.19,7.19,0,0,1,36.791,25c-.089.037-.118.341-.126.637a.605.605,0,0,1,.237.562c-.222,3.28-.8,6.4-.8,9.706a25.717,25.717,0,0,0,.777,5.153,10.31,10.31,0,0,0,.148-1.348.741.741,0,0,1,1.481,0,13.567,13.567,0,0,1-.83,4.087.776.776,0,0,1-.222.318,1.383,1.383,0,0,1,.3.385c.577,1.133-.149,1.97-1.133,2.347.1.681.1,1.444.215,2.095a14.829,14.829,0,0,1,.125,2.088,31.578,31.578,0,0,1,3.628,3.161,3.441,3.441,0,0,0,1.858-1.081,3.754,3.754,0,0,1,.652-.733,3.8,3.8,0,0,1-.482-.2c-.577-.3-.636-1.391-.747-1.91a47.355,47.355,0,0,1-1.325-6.3A.6.6,0,0,1,41,43.291c.481-4.849-1.266-9.031-1.68-13.762-.156-1.814-.074-4.124,1.192-5.567A9.686,9.686,0,0,0,39.427,23.2Zm-29.11,77.66c0,.111-.193-.14-.215-.17a1.2,1.2,0,0,1-.1-.089.66.66,0,0,1-.37-.1,2.922,2.922,0,0,1-1.288-1.1,1.159,1.159,0,0,1,.511-1.407,3.724,3.724,0,0,1,2.939-.585c.1-.333.192-.666.274-1.014,1.132-5.293.473-10.483,2.968-15.48a.619.619,0,0,1,.5-.363,18.167,18.167,0,0,1-.341-4.16c.23-2.17,1.9-4.257,3.11-5.96a13.349,13.349,0,0,1,3.612-3.591.778.778,0,0,1-.074-.3c-.022-.585-.185-1.147-.251-1.725-.023-.177-.178-.363-.215-.548-.015-.081-.015-.162-.022-.244a.75.75,0,0,1-.474-.355c-.259-.5-.378-1.081-.629-1.57a.779.779,0,0,1-.2-1.377c.281-.192.585-.363.881-.533a.747.747,0,0,1-.141-.37c-.148-2.08-.222-4.124-.311-6.2-.067-1.495-.7-3.139-.614-4.6a.766.766,0,0,1,.547-.711c.63-.23,1.178.081,1.814.185h.045c-.178-.977-.393-1.932-.519-2.924a13.59,13.59,0,0,1-.155-1.733c0-.251.03-.555.022-.836a3.811,3.811,0,0,1-1.606-.326,5.962,5.962,0,0,1-2.392-2.162c-.681-1.058-.3-2.287-1.488-3.1a.619.619,0,0,1-.4.282.939.939,0,0,1-.119.059.733.733,0,0,1-.355.081,1.912,1.912,0,0,1,.037.459c-.015.282-.052.57-.1.859-.089.518-.482,1.229-1.111,1.2a1.038,1.038,0,0,1-.859-1.5,4.571,4.571,0,0,0,.178-1.563,2.739,2.739,0,0,1-1.362-.562,3.324,3.324,0,0,1-1.585-2.391,14.738,14.738,0,0,1-.355-3.273.746.746,0,0,1-.237-.481c-.289-3.583-.7-7.144.1-10.727a14.186,14.186,0,0,1,.4-1.481c-1.917.1-6.107-1.74-6.048-3.961.111-3.872-1.784-4.782,2.458-5.952,6.537-1.814,13.37-1.325,20.085-1.325,7.018,0,14.2-.437,21.2.059a.764.764,0,0,1,.118.037c6.071.459,12.1.644,18.205.644A135.678,135.678,0,0,1,83.543,9.355c.029,0,.044.015.074.022a124.136,124.136,0,0,1,18.3-1.747c7,0,14.636-.822,21.558.274a.62.62,0,0,1,.452.933.786.786,0,0,1,0,.222,16.061,16.061,0,0,1-1.185,4.308c-.555,1-.7,2.436-1.777,3.065-1,.585-2.85.156-3.909.037a6.034,6.034,0,0,1-3.028-.858,43.077,43.077,0,0,0-10.016,3.435c-1.762.777-3.783.925-5.079,2.5a7.194,7.194,0,0,1-2.421,2.347c-3.575,1.406-7.558.518-11.105,1.606a19.907,19.907,0,0,1-7.314,1.259c-2.576,1.332-5.856,1.525-8.6,2.487-3.139,1.1-6.833.57-9.868,1.747a24.1,24.1,0,0,1-4.938,1.784c-1.807.3-3.672.385-4.938,1.807-1.436,1.606-5.56,1.207-7.589,1.073a24.749,24.749,0,0,1,.3,7.885.741.741,0,0,1-.408.592c.156,1.562.77,3.072,1.029,4.627.075.422.186,2.191.674,2.3.059.014.111.022.17.037-.051-1.629.7-2.769,1.6-4.294.547-.941,2.169-1.029,3.479-.9a2.793,2.793,0,0,1,3.6-.658c.733.5,1.873,1.9,2.725,2.1a2.144,2.144,0,0,1,1.377,1c.325.725.3,1.791.873,2.206a2.644,2.644,0,0,1,1.185,1.429c.755,2.006.022,2.887-.334,4.7A12.829,12.829,0,0,1,59.49,57.8c.022.007.044,0,.066.007,2.614.785,3.028,3.006,3.2,5.531.134,1.939,0,3.412.778,5.352.6,1.51,1.643,2.673,2.265,4.079C66.922,75.3,67,77.687,67.8,80.286c.57,1.858,2.1,3.879,2.044,5.819a.568.568,0,0,1-.052.222.648.648,0,0,1,.118.392,44.186,44.186,0,0,0,.4,7.27,2.762,2.762,0,0,1-.17,1.777c-.178.281-.992,1.066-1.059,1.266a.726.726,0,0,1-.777.5,1.836,1.836,0,0,1-.311.363,6.457,6.457,0,0,1-1.895.895.669.669,0,0,1-.718-.207,3.836,3.836,0,0,1-2.229.178,1,1,0,0,1-.548-1.54,7.884,7.884,0,0,0,.533-.718,1.385,1.385,0,0,0,.171-.57c-.452.089-.926-.133-.926-.622V95.3c0-.088-.192-.192-.2-.31-.074-1.178-.8-3.036-.148-4.117.415-.673.548-1.488.955-2.176.378-.63.792-1.222,1.163-1.858a.725.725,0,0,1,.155-.178c-.577-1.185-1.769-2.214-2.369-3.391-.459-.9-1.007-1.769-1.377-2.709a9.988,9.988,0,0,1-.755-4.4A7.434,7.434,0,0,0,58.416,74a9.971,9.971,0,0,1-.977-2.117A9.876,9.876,0,0,1,56.2,68.626a17.886,17.886,0,0,1-3.42,1.221,25.876,25.876,0,0,1-5.693.207c-.023,2.666.088,5.383-.148,8.033a1.075,1.075,0,0,1-.274.651c.059.83.636,1.348.888,2.11a3.493,3.493,0,0,1,.289,1.97c-.119.651-.7.962-1.229,1.206-.585.274-1.125.829-1.829.785-.836-.052-2.732-.585-2.695-1.732.008-.045.015-.1.023-.148-1,.562-1.9,1.821-3,1.776-1.192-.044-3.109-.325-3.827-1.436a8.916,8.916,0,0,1-.718-1.384c-.023.437-.052.873-.067,1.318-.022.851-.022,1.695-.111,2.531a.6.6,0,0,1,.141.089c1.628,1.622-.43,5.819-2.4,3.85a1.248,1.248,0,0,1-.252-1.051c.3-1.548,1.059-2.865,1.111-4.487.089-2.754.37-5.456.34-8.21,0-.037.015-.059.015-.089a4.934,4.934,0,0,1-1.369.393c-.289.037-.593.089-.911.14a.752.752,0,0,1,.044.23c0,.185.008.363.015.548a1.229,1.229,0,0,1,.015.177,5.457,5.457,0,0,0,.378,1.733.576.576,0,0,1,0,.4,1.46,1.46,0,0,1-.074,2.377c-1.03.725-1.985,1.288-3.191.57a1.771,1.771,0,0,1-.748-1.9,1.7,1.7,0,0,1-1.6-.688,1.5,1.5,0,0,1-.008-1.2c.045-.178.082-.371.112-.571a4.875,4.875,0,0,0-2.266,2.518.549.549,0,0,1-.1.17c-.022,4.745-.266,8.891-2.576,12.83a66.142,66.142,0,0,0-3.753,6.47,26.9,26.9,0,0,0-1.592,6.589.714.714,0,0,1-.126.3,11.988,11.988,0,0,1,.311,8.743c-.874,2.25-2.561,5.123-5.338,5.352-3.679.311-3.02-2.287-3.02-5.241s-.3-6.744,1.147-9.38a.516.516,0,0,1,.111-.133,5.854,5.854,0,0,1,.63-3.443c.34-.592.651-1.169.947-1.747A.723.723,0,0,1,10.317,100.859ZM73.489,23.48c-2.206.156-4.4.348-6.574.711-4.708.792-9.587.851-14.34,1.325-1.288.133-3.332.533-4.538-.207-1.5-.911-2.251-2.3-3.458-3.48a21.959,21.959,0,0,1-3.176.941,2.027,2.027,0,0,1,.585.71.783.783,0,0,1,.067.378.784.784,0,0,1-.274.881c-2.3,1.754-.666,7.159.007,9.432.037,0,.067-.015.111-.015,2.073.118,6.286.688,7.441-1.51a1.37,1.37,0,0,1,.814-.563,70.987,70.987,0,0,0,9.691-2.71c2.88-.9,6.278-.814,9.254-1.562,1.444-.363,2.761-1.11,4.242-1.362a13.713,13.713,0,0,0,4.153-1.044.6.6,0,0,1,.193-.1.676.676,0,0,1,.659-.015,11.533,11.533,0,0,0,4.76-.577,10.922,10.922,0,0,1,3.465-.985c4,0,8.625.052,11.319-3.243,1.873-2.287,5.686-2.776,8.262-4a27.874,27.874,0,0,1,6.8-2.184c-2.221-.77-7.181,1.207-8.832,1.925a37.112,37.112,0,0,1-9.639,2.214.608.608,0,0,1-.592.288c-1.326.881-3.043.548-3.85,2.044-.644,1.2-4.272,1.466-5.442,1.665A106.741,106.741,0,0,1,73.489,23.48Zm47.44-9.72a35.652,35.652,0,0,0,1.437-4.524c-3.5-.436-7.27-.125-10.765-.125-3.694-.008-7.388,0-11.083,0a68.29,68.29,0,0,0-7.329.436c-1.051,2.281-4.064,4.472-6.426,5.272-.266.088-.533.162-.8.236a4.3,4.3,0,0,1,2.672.548A7.127,7.127,0,0,0,92.308,17c.348.03.7.06,1.059.112A90.094,90.094,0,0,0,107.9,13.59c2.717-.889,5.189-2.118,7.129.51a.606.606,0,0,1,.133.474,8.605,8.605,0,0,0,3.672.578C120.078,15.152,120.485,14.937,120.929,13.76ZM89.377,18.824a2.762,2.762,0,0,1,1.362-.659,5.448,5.448,0,0,1-1.844-.659,6.629,6.629,0,0,0-3.738-.97,5.593,5.593,0,0,1-2.243-.3.744.744,0,0,1-.393-.37c-.518.111-1.036.229-1.555.37-1.858.5-3.79,1.473-5.678,1.74-1.984.274-3.924.237-5.863.7a5.427,5.427,0,0,1-3.087-.163,19.944,19.944,0,0,1-5.723-3.094c-2.488,1.14-4.983,1.332-7.537,2.228-1.473.526-2.221,1.614-3.575,2.162-1.163.474-2.318.9-3.458,1.4,1.3,1.436,2.532,3.25,4.738,3.006a52.315,52.315,0,0,0,5.79-.837,28.749,28.749,0,0,1,5.87-.207c2.407,0,4.672-.711,7.056-.874,4.753-.311,10.031-.3,14.7-1.3C86.363,20.556,87.814,20.386,89.377,18.824Zm2-9.062c-2.443.311-4.893.681-7.388,1.044a.663.663,0,0,1-.118,0,.775.775,0,0,1-.326.03A147.169,147.169,0,0,0,64.975,9.355c-.244,0-.488-.008-.74-.008a.518.518,0,0,1-.03.208c-.5,1.384-1.184,3.724-2.324,5,1.917,1.488,5.537,3.495,7.536,2.488,1.955-.992,4.6-.074,6.678-.829C80.73,14.53,88.333,14.389,91.375,9.762ZM68.618,95.233a7.224,7.224,0,0,0,.007-3.258,24.446,24.446,0,0,1-.192-5.256.541.541,0,0,1,.052-.222.659.659,0,0,1-.119-.392c.037-1.289-1.355-3.376-1.762-4.679-.674-2.177-.666-4.709-1.592-6.8-.984-2.229-2.532-3.939-3.346-6.33-.851-2.48.748-7.685-2.206-8.936a.573.573,0,0,1-.748-.192c-1.6-2.059-5.352-5.012-8.284-4.561-1.806.281-3.243-1.155-5.012-1.547-1.266.192-1.747,1.251-2.836,1.9a4.167,4.167,0,0,1-.873.385c3.739,4.065,7.174,9.5,5.5,13.208,1.858.111,3.679.4,5.16-.133,1.421-.519,2.887-1.015,4.264-1.614.192-.57.207-1.214.392-1.777a8.312,8.312,0,0,0,.489-2.191c.037-.948,1.518-.955,1.481,0a7.926,7.926,0,0,1-.541,2.583,19.824,19.824,0,0,0-.466,1.962.574.574,0,0,1-.178.452.242.242,0,0,1-.03.066.5.5,0,0,1-.14.163c.111,2.429,1.851,4.324,2.991,6.4a.642.642,0,0,1,.7.711,11.085,11.085,0,0,0,1.5,6.6c.918,1.784,2.5,3.058,3.1,4.99a.671.671,0,0,1-.548.881,18.215,18.215,0,0,0-1.8,3.457,7.09,7.09,0,0,0-.111,2.984c.081-.059.17-.119.259-.178a.742.742,0,0,1,1.014.267,1.406,1.406,0,0,0-.089,1.3,3.32,3.32,0,0,1-.222,1.614,1.783,1.783,0,0,1-.126.207,2.182,2.182,0,0,0,.5-.088c.414-.141.577-.548.755-.933.385-.815,1.525-.193,1.317.6a.766.766,0,0,0,.178-.133c.17-.192.289-.422.474-.614a2.219,2.219,0,0,0,.377-.526A.608.608,0,0,1,68.618,95.233ZM57.587,15.115A10.255,10.255,0,0,0,62.71,9.333c-2.769-.03-5.523-.111-8.277-.237a4.858,4.858,0,0,1-4.575,3.4c-1.562.008-3.035.57-4.561.556a26.456,26.456,0,0,0-3.213-.245.589.589,0,0,1-.17-.022,4.216,4.216,0,0,1-1.777.563c-1.614.155-2.532,1.051-4.027,1.466a7.066,7.066,0,0,1-2.835-.23c-1.925-.466-3.791-.1-5.723-.274-1.422-.126-3.1-.733-4.383.133a12.026,12.026,0,0,1-3.006,1.422c-.992.355-2.25.71-3.516,1.036,2.806,2.658,9.409,6.53,13.037,4.516.7-.385,1.3.481,1.925.607A18.646,18.646,0,0,0,39.2,21.7a46.77,46.77,0,0,0,12.267-5.027C53.367,15.537,55.64,15.929,57.587,15.115Zm-.407,40.57a3.794,3.794,0,0,0,.333-2.31c-.111-.407-.252-1.355-.681-1.555A2.646,2.646,0,0,1,56,51.339c-.874-.874-.311-1.844-1.829-2.784-.74-.466-2.228-2.413-3.317-2.273a3.133,3.133,0,0,1,1.555,1.2,8.126,8.126,0,0,0,2.517,3.279c1.288.985.726,2.547-.141,3.554A17.611,17.611,0,0,1,57.18,55.685Zm-3.769-2.066c.6-.563.941-1.51.1-2.043a3.151,3.151,0,0,1-.911-.733c-.777-1.037-1.258-3.3-2.924-3.3-1.133,0-2.68-.637-2.984.77a1.733,1.733,0,0,1-.651.918,1.981,1.981,0,0,0-.622,2.243c.044.015.089.03.141.045.022.007.029.029.051.037a.631.631,0,0,1,.408.111,7.325,7.325,0,0,1,3.442,1.4c.5.422,2.266-.126,3.08.237.289.126.563.244.836.37C53.389,53.656,53.4,53.634,53.411,53.619Zm-5.967-42.51c2.044-.481,4.368.037,5.427-2.1-1.718-.1-3.443-.2-5.167-.34a.484.484,0,0,1-.1-.022c-10.253-.7-20.788-.067-31.064-.052a31.074,31.074,0,0,0-8.106.94c-.955.259-3.213.629-2.791,1.229,1.125,1.592-.711,3,1.369,4.664a5.5,5.5,0,0,0,3.3,1.458.48.48,0,0,1,.251-.074c.43,0,.881-.014,1.325-.051a3.891,3.891,0,0,1,.963-.1,21.262,21.262,0,0,0,8.906-3.072c2.3-1.555,3.161-.844,5.819-.756,1.614.052,3.22-.044,4.827.037.94.045,2.613,1.089,3.428.282,1.554-1.562,4.331-.644,5.922-2.036a.766.766,0,0,1,1.192.237,14.28,14.28,0,0,0,1.673.214A11.731,11.731,0,0,0,47.444,11.109Zm-1.3,71.516c.541-.252.023-1.466-.192-1.762a3.728,3.728,0,0,1-.711-1.6,5.662,5.662,0,0,1-.614-.022,3.929,3.929,0,0,1-.1,1.1c-.126.444-.363.807-.519,1.236s-.3.837-.407,1.266c-.074.3,1.214.481,1.31.444C45.334,83.129,45.727,82.818,46.141,82.625Zm-.57-7.788c-.022-1.436.008-2.865.023-4.3-.171.125-.356.244-.548.362a24.965,24.965,0,0,1,.311,4,13,13,0,0,1-.015,1.777,6.444,6.444,0,0,1-.415,1.147c.311.023.548-.066.556-.481C45.49,76.5,45.579,75.673,45.571,74.837Zm-.362-6.086c2.295-2.813-.445-7.61-3.776-11.467-.007,0-.015.007-.022.007a2.77,2.77,0,0,0-1.177.422,3.1,3.1,0,0,0,.436.237c.6.259,1,.948,1.377,1.436A14.324,14.324,0,0,1,45.209,68.751Zm-1.333,6.737c0-.17,0-.34-.007-.51a1.055,1.055,0,0,1-.489-.082c-.111-.044-.289-.259-.4-.259-.14-.007-.281-.133-.414-.133h-.807a.26.26,0,0,1-.008.074C41.27,75.94,40.374,77.147,40,78.524c-.422,1.554.2,1.88,1.488,2.421.229.1.644.377.9.31a.618.618,0,0,1,.17.008.284.284,0,0,0,.029-.074,5.607,5.607,0,0,0,.556-2.428.686.686,0,0,1,.192-.489C43.373,77.317,43.876,76.5,43.876,75.488Zm-.044-1.954c-.023-.563-.074-1.125-.141-1.688a17.843,17.843,0,0,1-1.384,1.407c.207,0,.429,0,.6.007A2.291,2.291,0,0,1,43.832,73.534Zm-.215-3.9a11.728,11.728,0,0,0-1.895-8.18c-1.052-1.54-3.732-4.168-5.9-4.079,2.125,1.865,3.894,4.412,3.561,6.966a29.643,29.643,0,0,1-1.606,6.7,12.021,12.021,0,0,1-1.022,2.132c.592-.437,1.155-.918,1.718-1.347,1.436-1.111,1.673-2.443,1.887-4.168.112-.933,1.6-.948,1.481,0-.185,1.48-.281,3.309-1.347,4.449a18.958,18.958,0,0,1-2.384,1.858c.377-.148.74-.311,1.036-.414a10.4,10.4,0,0,0,3.783-3.065.639.639,0,0,1,.185-.222C43.291,70.047,43.461,69.832,43.617,69.632Zm-3.3-13.585c-.081-.089-.155-.177-.237-.259a10.046,10.046,0,0,0-1.6.474c.193.141.378.3.563.459A5.217,5.217,0,0,1,40.315,56.047ZM39.9,82.558a2.389,2.389,0,0,1,.5-.288,3.175,3.175,0,0,1-1.91-1.71c-.533-2.184.778-3.88,1.6-5.775a15.149,15.149,0,0,1-1.755.7.654.654,0,0,1-.044.2,8.606,8.606,0,0,1-2.066,2.732c-.74.614-.94.6-.555,1.85a8.442,8.442,0,0,0,.607,1.822A2.644,2.644,0,0,0,39.9,82.558ZM38.864,54.693a.321.321,0,0,0,.089-.03c-.7-.674-1.377-1.273-1.992-1.777.03.859.008,1.733.008,2.369a1.417,1.417,0,0,1-.03.193A14.063,14.063,0,0,1,38.864,54.693ZM37.3,66.316a6.927,6.927,0,0,0-.3-2.229,14.845,14.845,0,0,0-2.184-4.227.375.375,0,0,1-.037.089.752.752,0,0,1-.444.34,3.471,3.471,0,0,1-1.207-.007c-.141-.03-.274-.067-.415-.1a3.162,3.162,0,0,1-.3.415c-.126.126-.274.244-.414.378a21.191,21.191,0,0,1,1.888,1.236c.77.548.037,1.828-.741,1.273a18.439,18.439,0,0,0-2.1-1.355,2.068,2.068,0,0,0-1.022-.244,16.464,16.464,0,0,1,1.429,1.162,38.115,38.115,0,0,1,2.895,2.547c.666.689-.378,1.733-1.044,1.044a17.08,17.08,0,0,0-4.228-3.583c-1.732-.778-3.353-.5-5.13-.237-.1.067-.185.133-.281.207a6.874,6.874,0,0,1,5.678,2.9,11.6,11.6,0,0,1,1.607,9.04,8.312,8.312,0,0,0,4.33-2.525.625.625,0,0,1,.348-.237A24.408,24.408,0,0,0,37.3,66.316ZM35.732,23.9c.223-.148.452-.289.689-.422-1.229.044-2.443,0-3.642-.037a.4.4,0,0,1-.037.185,3.1,3.1,0,0,1-.815,1.37c.289,1.969.666,3.909,1.081,5.848.081.052.17.1.259.148.666.393.637,1.059,1.5,1.066.17-1.769.452-3.516.607-5.323a.65.65,0,0,1-.2-.533C35.214,25.5,35.037,24.347,35.732,23.9Zm-.2,19.648H35.8l-.007-.007c-.282-3.087-1.17-5.686-1.17-8.825,0-.385.015-.77.03-1.155a3.058,3.058,0,0,1-1.074-.059c.689,3.25.866,6.8,1.94,9.965C35.533,43.491,35.525,43.514,35.533,43.543Zm.2,2.006c.082-.451-.081-.607-.5-.466a1.532,1.532,0,0,0-.577.052C34.9,45.742,35.355,45.409,35.732,45.549Zm-.244,9.706c0-.385.037-1.044.022-1.762a6.188,6.188,0,0,1-.429.741,5.462,5.462,0,0,1-1.6,1.428c.289.171.585.363.881.57a9.355,9.355,0,0,1,1.2-.459A1.8,1.8,0,0,1,35.488,55.255ZM35.17,77.369a13,13,0,0,0,1.258-1.481,15.7,15.7,0,0,0-1.68-.4.525.525,0,0,1-.119-.022.647.647,0,0,1,.178.459c.007.592-.007,1.177-.022,1.77C34.925,77.576,35.066,77.472,35.17,77.369Zm.281-26.889c-.059-.94-.185-1.725-.3-2.628-.037-.267-.067-.607-.1-.881-.2-.015-.385-.037-.593-.067-1.125-.148-1.954-2.487-.732-3.042a3.152,3.152,0,0,1,.325-.119c-1.14-3.435-1.125-7.285-2.1-10.749-.1-.326-.163-.667-.252-1a6.03,6.03,0,0,1-2.636-2.065c-.592-.807-.081-1.918-1.08-2.384a3.629,3.629,0,0,1-1.592-1.1c-.518-.881-.008-1.962.451-2.887-3.457-.319-7.484-2.473-10.179-4.664a18.112,18.112,0,0,0,.222,5.989,25.151,25.151,0,0,1,1.014,4.146c.008.111.015.229.03.348a.673.673,0,0,1,.3.177,17.084,17.084,0,0,0,7.389,4.5,4.494,4.494,0,0,1,2.784,2.25,16.389,16.389,0,0,1,1.924,9.943,2.315,2.315,0,0,1,.5.089.761.761,0,0,1,.54.718,25.865,25.865,0,0,0,.933,4.916,10.956,10.956,0,0,1,.385,2.435,5.365,5.365,0,0,0,1.747-2.1,10.088,10.088,0,0,1,.644-1.3A.821.821,0,0,1,35.451,50.48Zm-1.74,8.388a2.367,2.367,0,0,1,.171-.2c-.474-.592-.992-1.192-1.54-1.821A63.913,63.913,0,0,0,26,61.126a10.37,10.37,0,0,1,1.844.089.728.728,0,0,1,.236-.244,4.03,4.03,0,0,1,2.495-.637,4.972,4.972,0,0,1,.437-.444c.281-.267.452-.6.718-.867C32.334,58.416,33.015,58.868,33.711,58.868Zm-2.48-3.554a16.271,16.271,0,0,0-.651-4.3,11.245,11.245,0,0,1-.615-3.272c-.821.1-1.732.955-2.384,1.207a9.753,9.753,0,0,1-2.413.607,25.112,25.112,0,0,1-2.761.459,5.813,5.813,0,0,1-1.044-.259c.081,1.532.622,3.227.614,4.76,0,.785.037,1.555.082,2.324a3.708,3.708,0,0,1,.348-.74c.836-1.31,1.525-2.7,2.383-3.99.526-.792,1.807-.052,1.281.74-.7,1.044-1.162,2.266-1.9,3.272a7.824,7.824,0,0,0-.888,1.755c-.178.444-.489.911-.652,1.384,1.2-.6,2.443-1.14,3.665-1.628C28,56.943,29.558,56.062,31.231,55.314Zm.015-25.334c-.326-1.584-.577-3.176-.792-4.775a2.159,2.159,0,0,1-.548-.126,1.463,1.463,0,0,1-.829-1.569,4.129,4.129,0,0,0-.437.037c-.052.007-.111,0-.163.007a11.681,11.681,0,0,0-.651,1.5c-.3,1,.881,1.111,1.369,1.429a1.886,1.886,0,0,1,.9,1.614A2.51,2.51,0,0,0,31.246,29.98ZM29.928,81.026c.222-.141.822-.348.556-.518a.733.733,0,0,1-.3-.874,1.375,1.375,0,0,1-.1-.185,5.784,5.784,0,0,1-.363-1.392c-.037,0-.081.008-.118.008.007.118.014.229.022.348a3.525,3.525,0,0,1-.356,1.332,3.335,3.335,0,0,0-.318,1.051C28.944,81.544,29.647,81.218,29.928,81.026Zm-.585-5.671a10.046,10.046,0,0,0-.51-7.2,8.936,8.936,0,0,0-1.888-2.354,32.14,32.14,0,0,0-4.109,1.865C21.1,68.8,20.1,70.484,18.971,72.164a11.262,11.262,0,0,0-2.161,7.648,13.955,13.955,0,0,1,.14,3.835c-.17.807-1.266.614-1.421-.052-1.348,4-.94,8.1-1.829,12.26a19.033,19.033,0,0,1-1.3,4.923c-.925,1.747-2.458,3.324-2.11,5.464a5.466,5.466,0,0,0,4.006.051.444.444,0,0,1,0-.1c.784-4.3,1.606-7.67,4.205-11.364,3.168-4.516,3.664-15.14,3.664-15.14,0-.326.282-.5.6-.54,1.34-2.392,3.961-3.051,6.574-3.739C29.343,75.392,29.336,75.377,29.343,75.355Zm-.51-28.806c.288-3.272.4-9.876-3.6-11.061a25.771,25.771,0,0,1-4.679-1.621A8.994,8.994,0,0,1,18,31.5a14.453,14.453,0,0,1-.9,4.79A4.523,4.523,0,0,1,18.8,39.323a2.888,2.888,0,0,0,3.065,2.051c.644,0,1.806.052,2.243-.555.548-.77,1.836-.037,1.274.74a3.878,3.878,0,0,1-2.273,1.288c.081.748-.037,1.57.059,2.288.133,1.066.348,2.088.533,3.139.008.044-.044.081-.044.126.163-.022.244-.052.4-.082,0-.037-.17-.059-.17-.1v-.37c0-.74,1.481-.74,1.481,0v.141a1.582,1.582,0,0,1,.207-.015C26.478,47.748,27.737,46.986,28.833,46.549ZM28.159,77.08c-.222.074-.437.156-.659.244a.835.835,0,0,1,.03.141c-.015.385-.1.755-.134,1.14-.007.082-.066.259-.1.407a.684.684,0,0,0,.414-.029.821.821,0,0,1,.282-.074c0-.008.007-.023.007-.03C28.24,78.376,28.048,77.657,28.159,77.08Zm-2.784-17.4c.03-.03.059-.052.089-.081a35.116,35.116,0,0,0-3.85,1.917c.1.229.163.466.245.711.044-.037.089-.067.148-.111A21.145,21.145,0,0,0,25.375,59.675Zm.222,5.16a2.453,2.453,0,0,0-2.532-.155c.008.1.015.2.023.3a5.9,5.9,0,0,0,.17,1.058C23.976,65.635,24.746,65.25,25.6,64.835ZM16.521,31.95a31.059,31.059,0,0,0-1.059-6.663,16.825,16.825,0,0,1-.3-2.28,2.61,2.61,0,0,0-2.443.192,13.24,13.24,0,0,0-1.7.681A30.418,30.418,0,0,0,11.2,28.8c.074-.052.141-.111.222-.163,2.206-1.384,4.657.763,5.034,2.91C16.484,31.683,16.5,31.816,16.521,31.95ZM14.64,35.733a1.047,1.047,0,0,0,.637-1.163,14.429,14.429,0,0,0-.155-2.117,3.4,3.4,0,0,0-.829-2.1c-.548-.429-1.925-1.155-2.436-.111-.555,1.133-.133,3.013.155,4.2C12.338,35.8,13.545,35.836,14.64,35.733Zm.482-14.3c0-.985.052-1.977.1-2.947-1.458-.163-3.316-.474-3.7,1.251a24.122,24.122,0,0,0-.319,2.532c.03-.007.06-.022.089-.029a17.337,17.337,0,0,1,1.607-.756A4.124,4.124,0,0,1,15.122,21.43Zm-.637,93.688a9.526,9.526,0,0,0-.074-7.263,6.906,6.906,0,0,1-4.664-.222,10.845,10.845,0,0,0-.57,4.006c1.088.71,1.917,1.791,3.117,2.324A8.155,8.155,0,0,1,14.485,115.118ZM13.76,116.6l-.015-.015c-.452-.977-2.14-1.222-3-1.769A13.5,13.5,0,0,1,9.1,113.438c-.155,1.695-.873,7.373,1.955,5.833A7.331,7.331,0,0,0,13.76,116.6ZM11.065,99.564c.1-.245.192-.5.281-.741a1.6,1.6,0,0,0-1.059.1c-.081.037-.163.067-.244.1.037.023.067.045.1.06a.665.665,0,0,1,.637.192C10.88,99.379,10.976,99.468,11.065,99.564Z"/><path d="M59.09,68.581c.451-.844,1.725-.1,1.281.74-.015.023-.1.282-.082.126a.763.763,0,0,1-.74.741.739.739,0,0,1-.741-.741A2.342,2.342,0,0,1,59.09,68.581Z"/><path d="M60.163,65.62c.741,0,.741,1.48,0,1.48C58.683,67.1,58.683,65.62,60.163,65.62Z"/><path d="M54.581,58.616c.689.659-.355,1.71-1.051,1.052-.481-.459-1.118-.711-1.6-1.178-.7-.658.355-1.7,1.044-1.043C53.456,57.906,54.093,58.157,54.581,58.616Z"/><path d="M53.56,61.178a.74.74,0,0,1,0,1.48,11.724,11.724,0,0,1-2.643-.214,6.4,6.4,0,0,0-2.525-.37c-.933.155-1.333-1.266-.392-1.422a5.506,5.506,0,0,1,2.613.185A10.124,10.124,0,0,0,53.56,61.178Z"/><path d="M49.118,55.87a.74.74,0,0,1,0,1.48h-.489a.74.74,0,0,1,0-1.48Z"/><path d="M41.566,64.006a3.823,3.823,0,0,1,.089.873.741.741,0,0,1-1.481,0,2.114,2.114,0,0,0-.037-.481C39.937,63.465,41.366,63.073,41.566,64.006Z"/><path d="M38.449,36.066v.5a.74.74,0,0,1-1.48,0v-.5A.74.74,0,0,1,38.449,36.066Z"/><path d="M27.53,54.737a.742.742,0,0,1,.266,1.014c-.163.222-.326.452-.5.681a.761.761,0,0,1-1.007.267.736.736,0,0,1-.266-1.014c.163-.223.325-.452.488-.682A.764.764,0,0,1,27.53,54.737Z"/><path d="M25.819,44.084c.43.851-.844,1.6-1.273.747a3.14,3.14,0,0,1-.229-1.547.74.74,0,0,1,1.48,0A2.08,2.08,0,0,0,25.819,44.084Z"/><path d="M18.653,76.384a.737.737,0,0,1,.518.911c-.066.163-.177.325-.244.488a.756.756,0,0,1-.911.519.738.738,0,0,1-.518-.911c.067-.17.178-.326.244-.5A.759.759,0,0,1,18.653,76.384Z"/></g></svg>