<svg fill="white" xmlns="http://www.w3.org/2000/svg" xmlns:xlink="http://www.w3.org/1999/xlink" version="1.1" x="0px" y="0px" viewBox="0 0 100 125" enable-background="new 0 0 100 100" xml:space="preserve"><g><path d="M66.234,22.467c-2.732-0.431-5.289,1.436-5.711,4.163c-0.424,2.728,1.443,5.282,4.164,5.707   c2.727,0.43,5.287-1.436,5.705-4.163C70.822,25.439,68.963,22.883,66.234,22.467z"/><path d="M67.844,36.949l-0.092-0.011c-0.131-0.541-0.43-1.119-1.094-1.544c-0.887-0.56-1.15-0.77-3.494-1.808L51.123,28.23   l-8.267-6.457l5.25-16.24H6.563v88.932h12.795l7.864-24.326c-0.154-0.045-0.312-0.096-0.483-0.159   c-0.246-0.094-0.317-0.592-0.334-0.971c0.016,0,0.027,0.014,0.05-0.002l13.61-9.579l2.249-0.323l13.438,0.266   c0.078,0,0.158-0.009,0.246-0.009c0.379-0.032,0.721-0.168,1.021-0.361l0.01,0.104c0,0,6.818-6.799,7.938-10.724   c0.193-0.697,0.408-1.459,0.627-2.24l0.906,2.512l1.174,11.379l0.449,0.046l1.682-11.817c0.008-0.031,0.008-0.078,0-0.119   l-0.072-0.403L67.844,36.949z M39.274,55.603l-0.178,0.014c-0.238,0.034-0.469,0.132-0.656,0.307l-9.755,9.684l5.439-16.825   c-2.203,0.194-2.941,0.282-4.365-0.852l13.028-3.072l9.372,7.486L39.274,55.603z M55.91,45.914l-11.745-4.655L43.85,41.1   c-0.352-0.173-0.76-0.192-1.158-0.033l-7.004,2.885l6.916-21.391l6.522,8.326c0.021,0.033,0.053,0.06,0.078,0.079l0.35,0.231   l7.15,4.81L55.91,45.914z"/></g><text x="0" y="115" fill="#000000" font-size="5px" font-weight="bold" font-family="'Helvetica Neue', Helvetica, Arial-Unicode, Arial, Sans-serif">Created by Dimitrios Stamatis</text><text x="0" y="120" fill="#000000" font-size="5px" font-weight="bold" font-family="'Helvetica Neue', Helvetica, Arial-Unicode, Arial, Sans-serif">from the Noun Project</text></svg>